<?xml version="1.0" encoding="utf-8"?>
<!-- Generator: Adobe Illustrator 21.1.0, SVG Export Plug-In . SVG Version: 6.00 Build 0)  -->
<svg version="1.1" id="Layer_1" xmlns="http://www.w3.org/2000/svg" xmlns:xlink="http://www.w3.org/1999/xlink" x="0px" y="0px"
	 viewBox="0 0 1298 341" style="enable-background:new 0 0 1298 341;" xml:space="preserve">
<style type="text/css">
	.st0{fill:#FFFFFF;stroke:#000000;stroke-width:3;stroke-miterlimit:10;}
</style>
<path class="st0" d="M320.9,213.1c-0.9,0-1.8,0-2.7,0.1c1.7-7.2,2.7-14.6,2.7-22.3c0-52-42.2-94.2-94.2-94.2
	c-38.6,0-71.8,23.2-86.3,56.4c-2.6-0.3-5.2-0.5-7.9-0.5c-34.8,0-63.4,26.6-66.5,60.6c-0.9-0.1-1.9-0.1-2.8-0.1
	c-19.9,0-36,16.1-36,36c0,19.9,16.1,36,36,36h257.7c19.9,0,36-16.1,36-36C356.9,229.2,340.8,213.1,320.9,213.1z"/>
<path class="st0" d="M555.5,167.1c-0.5,0-1,0-1.5,0c-4.7-17-20.3-29.5-38.8-29.5c-10.9,0-20.8,4.4-28.1,11.4
	c-3.5-1.1-7.2-1.8-11-1.8c-14.2,0-26.5,8.4-32.1,20.6c-2-0.5-4.2-0.8-6.4-0.8c-14.2,0-25.8,11.5-25.8,25.8
	c0,14.2,11.5,25.8,25.8,25.8c1.1,0,117.9,0,117.9,0c14.2,0,25.8-11.5,25.8-25.8C581.3,178.6,569.7,167.1,555.5,167.1z"/>
<path class="st0" d="M818.3,232.4c-4.7,0-9.2,0.8-13.5,2.2c-6.4-32.2-34.8-56.5-68.9-56.5c-27.9,0-52,16.3-63.4,39.9
	c-4.5-1.3-9.2-2-14.1-2c-24.3,0-44.6,16.9-49.9,39.5c-3-1-6.3-1.5-9.6-1.5c-17.8,0-32.2,14.4-32.2,32.2s14.4,32.2,32.2,32.2
	c2,0,217,0,219.3,0c23.8,0,43.1-19.3,43.1-43.1C861.4,251.7,842.1,232.4,818.3,232.4z"/>
<path class="st0" d="M1214.4,137.6c-0.9,0-1.8,0-2.7,0.1c1.7-7.2,2.7-14.6,2.7-22.3c0-52-42.2-94.2-94.2-94.2
	c-38.6,0-71.8,23.2-86.3,56.4c-2.6-0.3-5.2-0.5-7.9-0.5c-34.8,0-63.4,26.6-66.5,60.6c-0.9-0.1-1.9-0.1-2.8-0.1
	c-19.9,0-36,16.1-36,36c0,19.9,16.1,36,36,36h257.7c19.9,0,36-16.1,36-36C1250.4,153.7,1234.2,137.6,1214.4,137.6z"/>
</svg>
