<?xml version="1.0" encoding="utf-8"?>
<!-- Generator: Adobe Illustrator 21.1.0, SVG Export Plug-In . SVG Version: 6.00 Build 0)  -->
<svg version="1.1" id="Layer_1" xmlns="http://www.w3.org/2000/svg" xmlns:xlink="http://www.w3.org/1999/xlink" x="0px" y="0px"
	 viewBox="0 0 222 212" style="enable-background:new 0 0 222 212;" xml:space="preserve">
<style type="text/css">
	.st0{fill:#FFFFFF;stroke:#000000;stroke-width:3;stroke-miterlimit:10;}
	.st1{fill:#FF2727;stroke:#000000;stroke-width:3;stroke-linejoin:round;stroke-miterlimit:10;}
	.st2{fill:#FFFFFF;stroke:#000000;stroke-width:3;stroke-linejoin:round;stroke-miterlimit:10;}
</style>
<g>
	<circle class="st0" cx="111" cy="106.1" r="88"/>
	<g>
		<path class="st1" d="M82.4,173.8c0,0-6-26.4-8.2-32.7c-2.2-6.3-15.3-16.5-15.3-29.6s10.2-24.6,23.4-24.6s24.1,8.7,24.1,24.3
			S93,135.9,91.2,142.3C89.4,148.8,82.4,173.8,82.4,173.8z"/>
		<circle class="st2" cx="83.4" cy="110.4" r="7"/>
	</g>
	<g>
		<path class="st1" d="M137,130.3c0,0-6-26.4-8.2-32.7c-2.2-6.3-15.3-16.5-15.3-29.6s10.2-24.6,23.4-24.6s24.1,8.7,24.1,24.3
			s-13.5,24.6-15.3,31.1C144,105.3,137,130.3,137,130.3z"/>
		<circle class="st2" cx="138" cy="67" r="7"/>
	</g>
</g>
</svg>
