<?xml version="1.0" encoding="utf-8"?>
<!-- Generator: Adobe Illustrator 21.1.0, SVG Export Plug-In . SVG Version: 6.00 Build 0)  -->
<svg version="1.1" id="Layer_1" xmlns="http://www.w3.org/2000/svg" xmlns:xlink="http://www.w3.org/1999/xlink" x="0px" y="0px"
	 viewBox="0 0 222 212" style="enable-background:new 0 0 222 212;" xml:space="preserve">
<style type="text/css">
	.st0{fill:#FFCC66;}
	.st1{fill:#5FCAFF;}
</style>
<g>
	<path class="st0" d="M110.5,16.7c-49.8,0-90.2,40.4-90.2,90.2c0,49.8,40.4,90.2,90.2,90.2c49.8,0,90.2-40.4,90.2-90.2
		C200.7,57.1,160.3,16.7,110.5,16.7z M110.5,153.7c-26,0-47.1-22.2-47.1-49.5c0-27.4,21.1-49.5,47.1-49.5c26,0,47.1,22.2,47.1,49.5
		C157.6,131.5,136.5,153.7,110.5,153.7z"/>
	<g>
		<g>
			<path class="st1" d="M110.3,192.1c-47.7,0-85.1-36.9-85.1-84.1v-2.7c0-0.5,0.7-1.2,1.2-1.2h30.8c0.8,0,1.2,0.7,1.2,1.2v0.5
				c0,31.4,21.9,54.2,52,54.2c14.8,0,28.3-5.6,37.9-15.8c9.3-9.9,14.4-23.4,14.4-38.1v-0.8c0-0.5,0.4-1.2,1.2-1.2h30.8
				c0.5,0,1.2,0.7,1.2,1.2v2.7C195.7,155.2,158.2,192.1,110.3,192.1z"/>
			<path class="st0" d="M190.7,109.2c-0.6,43.8-35.7,78-80.4,78c-21.8,0-42.1-8.2-57-23.2c-14.6-14.5-22.7-34-23-54.8h23.2
				c0.7,14.8,6.2,28.3,15.5,38.4c10.5,11.3,25.2,17.5,41.4,17.5c16.2,0,31-6.2,41.5-17.4c9.5-10.1,15.1-23.7,15.7-38.5H190.7
				 M194.6,99.2h-30.8c-3.6,0-6.2,2.9-6.2,6.2v0.8c0,27.2-19.1,48.9-47.3,48.9c-28.2,0-47-21.7-47-49.2v-0.5c0-3.2-2.6-6.2-6.2-6.2
				H26.4c-3.2,0-6.2,2.9-6.2,6.2v2.7c0,49.2,39.2,89.1,90.1,89.1c51.2,0,90.4-39.9,90.4-89.1v-2.7
				C200.7,102.1,197.8,99.2,194.6,99.2L194.6,99.2z"/>
		</g>
	</g>
</g>
</svg>
