<?xml version="1.0" encoding="utf-8"?>
<!-- Generator: Adobe Illustrator 21.1.0, SVG Export Plug-In . SVG Version: 6.00 Build 0)  -->
<svg version="1.1" id="Layer_1" xmlns="http://www.w3.org/2000/svg" xmlns:xlink="http://www.w3.org/1999/xlink" x="0px" y="0px"
	 viewBox="0 0 167 138" style="enable-background:new 0 0 167 138;" xml:space="preserve">
<style type="text/css">
	.st0{fill:#FFFFFF;stroke:#000000;stroke-width:3;stroke-miterlimit:10;}
</style>
<g>
	<path class="st0" d="M61.5,53.4l-23-26.2c-0.3-0.3-0.5-0.6-0.6-1c-2.3-6,2.1-9.3,4.1-10.2c2-1,12.5-4.3,22.5,5.1l34.3,34.2"/>
	<path class="st0" d="M35.7,109c-0.3,0.3-0.5,0.6-0.6,1c-2.3,6,2.1,9.3,4.1,10.2c2,1,12.5,4.3,22.5-5.1l33.6-32.6
		c0.6-0.6,1.5-1,2.4-1l42,0.1c0.1,0,0.2,0,0.3,0c1.7-0.2,15.7-1.6,15.3-5.5c-0.8-6.9-15.1-16.7-19.3-18.1
		c-4.2-1.4-93.7-4.9-93.7-4.9c-1-0.1-2-0.6-2.6-1.4c-2.9-4.1-8.9-11.8-13.4-17.4s-9.7-3.1-9.7-3.1S12,32.9,12.9,38
		c0.6,3.2,2.6,14.6,5.1,25.3c1.5,6.5,6.7,11.5,13.3,12.8l26.9,5.2c0.6,0.1,0.9,0.9,0.5,1.4L35.7,109z"/>
</g>
</svg>
